<svg xmlns="http://www.w3.org/2000/svg" viewBox="11469.715 2614.715 63.57 63.57"><g transform="translate(11469.715 2614.715)"><path class="a" d="M47.879,38.862a1.571,1.571,0,0,0-1.673.468,1.175,1.175,0,0,0-.268.335h0l-.067-.067a1.672,1.672,0,0,0-3.078,1.138,2.765,2.765,0,0,0,.736,1.539l1.2,1.2c.4.4.8.736,1.2,1.071l.067-.067c.6-.535,1.2-1.138,1.74-1.673a8.14,8.14,0,0,0,1-1.138,2.291,2.291,0,0,0,.335-1.472A1.852,1.852,0,0,0,47.879,38.862Z" transform="translate(-14.154 -12.831)"/><path class="a" d="M31.785,0A31.785,31.785,0,1,0,63.57,31.785,31.814,31.814,0,0,0,31.785,0Zm0,11.242A4.619,4.619,0,1,1,27.3,15.859,4.557,4.557,0,0,1,31.785,11.242Zm15.123,3.747-9.7,9.7c0,.2.067.335.067.535v7.562l3.011,17.934a1.72,1.72,0,0,1-1.74,2.074,2.2,2.2,0,0,1-2.476-2.074L34.127,39.347c-.4-2.275-4.483-2.342-4.885.067l-2.007,11.71A2.124,2.124,0,0,1,24.558,52.8a2.215,2.215,0,0,1-1.472-2.409l2.81-16.8v-8.3a3.258,3.258,0,0,1,.067-.8L16.6,15.123a2.082,2.082,0,0,1,2.944-2.944l8.833,8.833a4.975,4.975,0,0,0,6.491.067l8.9-8.9a2.14,2.14,0,0,1,2.81-.2A1.9,1.9,0,0,1,46.908,14.989Z"/></g></svg>