<svg xmlns="http://www.w3.org/2000/svg" viewBox="-1649.07 4932.147 74.018 74.956"><g transform="translate(-2572 -1069)"><path class="a" d="M57.2,72.988a8.9,8.9,0,0,1-7.838.49,9.517,9.517,0,0,0-10.533,1.8,7.513,7.513,0,0,1-4.9,1.878,6.4,6.4,0,0,1-2.123-.327c-.653-.163-1.225-.327-1.878-.49-.816-.245-1.715-.408-2.531-.653a9.527,9.527,0,0,1-6.205-5.8c-1.388-3.429-3.756-5.307-7.593-6.042A11.633,11.633,0,0,1,4.3,52.657v-.327l.572-1.306c.163-.816.327-1.633.572-2.449,1.061-3.919.653-6.94-1.306-9.634a10.589,10.589,0,0,1-1.715-9.063c.653-2.041,1.715-4.98,5.144-6.613,3.919-1.878,6.45-5.144,7.757-10.043a11.288,11.288,0,0,1,5.144-7.1,10.546,10.546,0,0,1,8.246-.653c4.164,1.225,7.675.816,10.941-1.388A11.26,11.26,0,0,1,49.2,2.689a10.829,10.829,0,0,1,6.94,5.96c1.388,3.184,4,5.144,8.9,6.532C71,16.9,73.861,21.468,72.8,27.837l-.245,1.96a19.067,19.067,0,0,1-.327,2.123,10.9,10.9,0,0,0,1.47,7.43c2.2,3.592,2.858,6.94,2.041,10.124q-1.225,4.654-6.613,7.593h0a9.358,9.358,0,0,0-5.144,6.777A11.661,11.661,0,0,1,57.2,72.988Z" transform="translate(920.871 5998.951)"/><ellipse class="b" cx="22.698" cy="22.698" rx="22.698" ry="22.698" transform="translate(937.334 6016.01)"/><path class="a" d="M38.315,55.182l-7.1-6.777a2.712,2.712,0,0,1-.082-3.837h0a2.712,2.712,0,0,1,3.837-.082l4.9,4.736a.4.4,0,0,0,.572,0L53.583,36.73a2.71,2.71,0,0,1,3.837.082h0a2.71,2.71,0,0,1-.082,3.837L42.071,55.182A2.767,2.767,0,0,1,38.315,55.182Z" transform="translate(915.675 5992.752)"/></g></svg>