<svg xmlns="http://www.w3.org/2000/svg" viewBox="3428.65 1201 119.242 120"><g transform="translate(3428.65 1201)"><path class="a" d="M59.521.1A59.785,59.785,0,0,0-.1,60.1c0,33.095,26.735,60,59.621,60s59.621-26.905,59.621-60A59.7,59.7,0,0,0,59.521.1Z" transform="translate(0.1 -0.1)"/><path class="b" d="M93.171,55.783c-1,6.189-3.64,8.337-9.665,9.6v1.768c0,4.8-.126,9.474,0,14.274.126,2.905-1.506,4.042-4.017,4.042-6.025,0-41.17.253-47.822,0-2.259-.126-3.012-1.642-3.012-3.789V67.025a8.391,8.391,0,0,0-.126-1.768c-6.652-.379-9.79-2.779-11.171-8.211a21.24,21.24,0,0,1-.126-5.811c1-4.295,3.389-7.326,7.531-8.716a17.814,17.814,0,0,1,3.64-.379c.753-2.021,1.506-3.916,2.385-5.811,4.017-8.337,10.167-14.147,19.2-16.547a18.028,18.028,0,0,1,9.163-.505,28.028,28.028,0,0,1,8.535,2.653c8.033,3.916,12.928,10.611,15.69,18.947.251.884.628,1.389,1.506,1.516,3.64.632,5.774,3.032,7.28,6.316C93.548,51.235,93.3,55.53,93.171,55.783Z" transform="translate(4.481 4.849)"/><path class="a" d="M89.164,46.005c-1.13-3.663-3.766-6.568-7.531-5.432-8.41,2.653-11.171-3.411-11.924-4.547C53.517,47.142,44.1,35.774,43.727,35.9c-.628.379-5.648,8.968-15.941,4.926-2.259-.884-4.142-.126-5.774,1.389-3.138,3.032-3.389,9.095-.5,12.379a5.642,5.642,0,0,0,6.527,1.768,2.83,2.83,0,0,1,3.514,1.895c1.506,3.032,2.761,6.189,4.77,8.842,6.4,8.716,16.694,12.253,26.108,9.095,8.41-2.779,13.681-8.842,16.819-16.8.879-2.147,1.506-2.526,3.766-2.653a6.231,6.231,0,0,0,2.636-.632C88.788,54.595,90.168,50.048,89.164,46.005Z" transform="translate(5.1 9.321)"/><path class="b" d="M47.364,47.349c-.753,1.768-3.138,5.558-9.539,5.558a13.557,13.557,0,0,1-2.259-.126,1.546,1.546,0,0,1-1-.505.987.987,0,0,1-.251-1.011h0a1.3,1.3,0,0,1,1.506-1.137c6.4.758,8.41-2.274,9.037-3.663a1.279,1.279,0,0,1,1.506-.758,1.953,1.953,0,0,1,1,.758C47.489,46.464,47.615,46.97,47.364,47.349Z" transform="translate(8.868 11.893)"/><ellipse class="b" cx="4.393" cy="5.305" rx="4.393" ry="5.305" transform="translate(56.86 68.211)"/><path class="b" d="M64.922,52.226a1.546,1.546,0,0,1-1,.505,13.557,13.557,0,0,1-2.259.126c-6.4,0-8.786-3.789-9.539-5.558a1.763,1.763,0,0,1,0-1.137,1.56,1.56,0,0,1,1-.758,1.429,1.429,0,0,1,1.506.758c.628,1.389,2.636,4.421,9.037,3.663a1.3,1.3,0,0,1,1.506,1.137h0A3.757,3.757,0,0,1,64.922,52.226Z" transform="translate(13.401 11.816)"/></g></svg>