<svg xmlns="http://www.w3.org/2000/svg" viewBox="-1188 6109 64 64"><g transform="translate(-1187.9 6108.9)"><path class="a" d="M31.9.1a32,32,0,1,0,32,32A31.986,31.986,0,0,0,31.9.1Z" transform="translate(0 0)"/><path class="b" d="M57.863,33.929a8.179,8.179,0,0,0-7.074-7.478,7.689,7.689,0,0,0-3.3.337A8.554,8.554,0,0,0,38.932,18.3a8.466,8.466,0,0,0-7.545,4.514,9.393,9.393,0,0,0-6.131-.943,9.633,9.633,0,0,0-2.829,17.987l.135,12.8s2.964,5.322,14.417,5.322c12.463,0,16.3-5.255,16.3-5.255l.067-11.048A7.883,7.883,0,0,0,57.863,33.929Zm-7.074,6.063v9.634s-1.28,2.223-4.918,2.223V34.064s0-4.783,3.84-5.053a4.919,4.919,0,0,1,5.457,4.648A6.066,6.066,0,0,1,50.789,39.993Z" transform="translate(-5.685 -5.939)"/></g></svg>