<svg xmlns="http://www.w3.org/2000/svg" viewBox="-1654.424 2141.325 83.849 98.129">
  <g id="Group_11" data-name="Group 11" transform="translate(-1654.424 2141.325)">
    <g id="Group_10" data-name="Group 10">
      <path id="Path_5" data-name="Path 5" class="b" d="M59.637,111.229H58.8a16.281,16.281,0,0,1-1.527-.694c-3.886-2.221-7.911-4.3-11.659-6.662A73.2,73.2,0,0,1,26.465,86.662C20.5,79.028,17.027,70.423,17.3,60.43c.139-9.577,0-19.293,0-28.87,0-2.637.555-3.47,3.054-4.441,8.744-3.192,17.488-6.385,26.094-9.577,4.025-1.527,8.05-3.054,12.214-4.441h1.249c.972.416,1.8.694,2.776,1.11,11.937,4.3,23.734,8.605,35.671,12.908,2.221.833,2.776,1.8,2.776,4.164V58.07a63.453,63.453,0,0,1-.416,8.883c-.833,6.94-3.886,13.047-7.911,18.6A77.241,77.241,0,0,1,75.6,101.93,87.159,87.159,0,0,1,59.637,111.229Z" transform="translate(-17.289 -13.1)"/>
    </g>
    <path id="Path_6" data-name="Path 6" class="a" d="M73.223,84.568a5.773,5.773,0,0,0,.833-8.189c-.278-.416-.694-.833-.972-1.249l-3.331-4.164c-1.527-1.943-3.192-3.886-4.719-5.829l-4.164-5-5-6.246c-1.527-1.943-3.054-3.748-4.58-5.691-1.666-2.082-3.331-4.3-5-6.523-1.249-1.666-2.36-3.192-3.47-5A32.572,32.572,0,0,1,39.495,27.8a2.072,2.072,0,0,0-.416.972A14.143,14.143,0,0,1,36.441,35.3a8.913,8.913,0,0,0-1.8,7.079A18.016,18.016,0,0,0,38.8,50.84c2.082,2.637,4.3,5.413,6.385,8.05,1.943,2.36,3.748,4.858,5.691,7.217,1.666,2.082,3.47,4.3,5.135,6.385,2.221,2.637,4.3,5.413,6.385,8.05.833,1.11,1.666,2.082,2.5,3.192a5.951,5.951,0,0,0,8.328.833Z" transform="translate(-10.61 -7.397)"/>
    <path id="Path_7" data-name="Path 7" class="a" d="M44.432,52.3c-2.637,3.331-5.274,6.385-7.911,9.577-1.388,1.666-2.776,3.47-4.164,5.135a5.731,5.731,0,0,0,.833,8.05h0a5.6,5.6,0,0,0,8.05-.833c.278-.278.416-.555.555-.694l5-6.246c1.527-1.8,3.054-3.748,4.58-5.552a.63.63,0,0,0,0-.694c-.139-.416-.555-.694-.833-.972-1.388-1.666-2.637-3.331-4.025-5A13.2,13.2,0,0,0,44.432,52.3Z" transform="translate(-11.938 2.108)"/>
    <path id="Path_8" data-name="Path 8" class="a" d="M60.243,27.9c-.278,1.11-.694,2.221-.972,3.331-1.388,4.58-4.025,8.328-6.94,11.937L49,47.332c2.5,3.054,4.858,6.107,7.356,9.161.139-.139.278-.278.278-.416,1.249-1.527,2.36-3.192,3.609-4.719a20.3,20.3,0,0,0,4.164-7.079,9.2,9.2,0,0,0,0-6.662c-.972-2.082-1.8-4.3-2.637-6.385C61.214,30.121,60.8,29.01,60.243,27.9Z" transform="translate(-4.986 -7.358)"/>
    <path id="Path_9" data-name="Path 9" class="a" d="M50.626,21.8c-1.666.139-3.331.278-5.135.416a12.512,12.512,0,0,0-4.441,1.249,2.219,2.219,0,0,0-1.249,1.8,29.133,29.133,0,0,0,1.249,6.94c.139.694.555.694,1.11.694a6.967,6.967,0,0,1,1.666-.278c1.943-.139,3.748-.139,5.691-.139,2.776,0,5.413.139,8.189.278.555,0,1.388.278,1.8,0s.416-1.11.555-1.666a25.688,25.688,0,0,0,.972-5.691,2.166,2.166,0,0,0-.972-1.8,12.9,12.9,0,0,0-1.388-.694A30.473,30.473,0,0,0,50.626,21.8Z" transform="translate(-8.555 -9.725)"/>
  </g>
</svg>
