<svg xmlns="http://www.w3.org/2000/svg" viewBox="7147.511 -2419 47 47"><path class="a" d="M23.4.1A23.5,23.5,0,1,0,46.9,23.6,23.49,23.49,0,0,0,23.4.1ZM37.1,32.852c-1.187,1.435-3.562,5.1-6.333,4.7-.495-.1-1.039-.2-1.534-.3a15.837,15.837,0,0,1-4.354-1.781A32.022,32.022,0,0,1,16.523,28.6a34.432,34.432,0,0,1-5.986-9,17.311,17.311,0,0,1-1.286-4.749A7.337,7.337,0,0,1,9.3,12.518a2.579,2.579,0,0,1,.891-1.484c.693-.643,2.127-1.633,3.414-2.573A2.846,2.846,0,0,1,17.76,9.5c.594,1.138,1.187,2.276,1.583,3.166.2.445.445.94.643,1.385a1.9,1.9,0,0,1-.4,2.127c-.495.495-1.039.94-1.534,1.385a.846.846,0,0,0-.247.989c.3.693.544,1.435.891,2.078a14.588,14.588,0,0,0,1.435,2.127,23.581,23.581,0,0,0,4.6,4.552,7.685,7.685,0,0,0,2.078,1.138,1.012,1.012,0,0,0,.989-.2c.495-.495,1.039-.989,1.583-1.435a2.086,2.086,0,0,1,2.573-.2c1.336.891,3.166,2.177,4.8,3.265A2.039,2.039,0,0,1,37.1,32.852Z" transform="translate(7147.611 -2419.1)"/></svg>