<svg xmlns="http://www.w3.org/2000/svg" viewBox="1325.768 -4953.136 94.772 94.772"><g transform="translate(1325.768 -4953.136)"><path class="a" d="M31.955,31.886h.491A2.492,2.492,0,0,0,34.9,29.434V23.155a1.244,1.244,0,0,0-.1-.589h0a3.069,3.069,0,0,0-.491-.981l-.1-.1-.2-.2-.1-.1c-.1,0-.1-.1-.2-.1s-.1-.1-.2-.1-.1-.1-.2-.1-.2-.1-.294-.1H31.268c-.1,0-.2.1-.294.1.1.1,0,.1,0,.1-.1,0-.1.1-.2.1s-.1.1-.2.1l-.1.1-.2.2-.1.1a3.069,3.069,0,0,0-.491.981h0c0,.2-.1.392-.1.589v6.279A2.409,2.409,0,0,0,31.955,31.886Z" transform="translate(-0.56 -0.393)"/><path class="a" d="M65.053,31.886h.491A2.492,2.492,0,0,0,68,29.434V23.155a1.244,1.244,0,0,0-.1-.589h0a3.069,3.069,0,0,0-.491-.981l-.1-.1-.2-.2-.1-.1c-.1,0-.1-.1-.2-.1s-.1-.1-.2-.1-.1-.1-.2-.1-.2-.1-.294-.1H64.268c-.1,0-.2.1-.294.1.1.1.1.1,0,.1s-.1.1-.2.1-.1.1-.2.1l-.1.1-.2.2-.1.1a2.228,2.228,0,0,0-.589,1.57v6.279A2.429,2.429,0,0,0,65.053,31.886Z" transform="translate(-1.184 -0.393)"/><path class="a" d="M23.5,67.553a2.429,2.429,0,0,0,2.453,2.453H69.709a2.429,2.429,0,0,0,2.453-2.453V39.2H23.5Zm14.128-15.6a2.462,2.462,0,0,1,3.434.2l3.728,4.317a.368.368,0,0,0,.589,0l10.6-10.792a2.371,2.371,0,0,1,3.434,0h0a2.371,2.371,0,0,1,0,3.434L46.654,62.059a2.52,2.52,0,0,1-3.63-.1l-5.788-6.573A2.7,2.7,0,0,1,37.628,51.954Z" transform="translate(-0.445 -0.742)"/><path class="a" d="M47.386,0A47.386,47.386,0,1,0,94.773,47.386,47.355,47.355,0,0,0,47.386,0ZM75.641,66.812a6.364,6.364,0,0,1-6.377,6.377H25.508a6.364,6.364,0,0,1-6.377-6.377V28.549a6.364,6.364,0,0,1,6.377-6.377H26.1a5.4,5.4,0,0,1,5.3-4.807h.491a5.323,5.323,0,0,1,5.3,4.807H58.472a5.4,5.4,0,0,1,5.3-4.807h.491a5.323,5.323,0,0,1,5.3,4.807,6.356,6.356,0,0,1,5.985,6.377V66.812Z"/></g></svg>