<svg xmlns="http://www.w3.org/2000/svg" viewBox="14890 676 120 120"><g transform="translate(14890 676)"><path class="a" d="M12.814,22.329h8.229A.909.909,0,0,0,22.071,21.3V13.071A1.256,1.256,0,0,0,20.7,11.7H12.471A1.256,1.256,0,0,0,11.1,13.071V21.3A1.885,1.885,0,0,0,12.814,22.329Zm4.8-7.886Z" transform="translate(26.957 28.414)"/><path class="a" d="M25.157,17.4H17.271c-1.029,0-1.371.343-1.371,1.371V27c0,1.029.343,1.371,1.371,1.371h7.886c1.029,0,1.371-.343,1.371-1.371V19.114C26.871,17.743,26.529,17.4,25.157,17.4Z" transform="translate(38.614 42.257)"/><path class="a" d="M21.929,18.771c0-1.029-.343-1.371-1.371-1.371H12.671c-1.029,0-1.371.343-1.371,1.371V27c0,.686.343,1.371,1.029,1.371H20.9c.686,0,1.029-.343,1.029-1.371V18.771Z" transform="translate(27.443 42.257)"/><path class="a" d="M60,0a60,60,0,1,0,60,60A59.847,59.847,0,0,0,60,0ZM88.457,93.6H49.371V80.229c0-1.714-.686-2.4-2.4-2.4H41.143c-1.714,0-2.4.686-2.4,2.4V93.6h-7.2V26.057c0-2.743.686-3.429,3.429-2.4,7.2,2.057,52.8,9.863,53.486,10.549C88.457,51.691,88.457,75.429,88.457,93.6Z"/><path class="a" d="M21.82,28.029h8.229a1.256,1.256,0,0,0,1.371-1.371V18.429A.909.909,0,0,0,30.391,17.4H22.163c-1.029,0-1.371.343-1.371,1.371V27Q20.277,28.029,21.82,28.029Z" transform="translate(50.18 42.257)"/><path class="a" d="M15.9,12.971V21.2a.909.909,0,0,0,1.029,1.029H25.5A.909.909,0,0,0,26.529,21.2V12.971c0-1.029-.343-1.371-1.371-1.371H16.929C16.586,11.943,15.9,12.286,15.9,12.971Z" transform="translate(38.614 28.171)"/><path class="a" d="M21.971,22.329H30.2A.909.909,0,0,0,31.229,21.3V12.729A.909.909,0,0,0,30.2,11.7H21.629A.909.909,0,0,0,20.6,12.729v8.229C20.6,21.986,20.943,22.329,21.971,22.329Z" transform="translate(50.029 28.414)"/></g></svg>