<svg xmlns="http://www.w3.org/2000/svg" viewBox="14543 676 120 120"><path class="a" d="M60,0a60,60,0,1,0,60,60A59.847,59.847,0,0,0,60,0Zm2.4,96.343-3.086-1.029a30.4,30.4,0,0,1-8.571-4.8A63.953,63.953,0,0,1,35.314,74.057a72.734,72.734,0,0,1-8.571-16.114A39.439,39.439,0,0,1,24,43.886a10.9,10.9,0,0,1,.686-4.8c4.8-12.343,16.457-10.629,17.143-8.229,1.029,3.771,2.4,7.2,3.429,10.971l1.029,3.086a3.746,3.746,0,0,1-1.371,4.114,35.914,35.914,0,0,1-3.771,2.743,1.252,1.252,0,0,0-.686,1.714,25.255,25.255,0,0,0,1.371,4.8,31.348,31.348,0,0,0,2.4,4.8c2.4,3.771,4.8,7.543,8.229,10.629a17.228,17.228,0,0,0,4.114,2.743,1.615,1.615,0,0,0,2.057-.343A35.913,35.913,0,0,1,62.4,73.371c1.714-1.371,3.771-1.029,5.486.343,3.429,3.086,7.2,6.171,10.629,9.257L79.543,84C80.914,86.4,76.114,98.743,62.4,96.343ZM72,58.286a3.086,3.086,0,0,1,0,6.171H60.686A4.538,4.538,0,0,1,56.229,60V42.171a3.086,3.086,0,1,1,6.171,0V58.286ZM90.514,81.6a3.069,3.069,0,0,1-4.8.343h0a2.638,2.638,0,0,1-.343-3.429,33.452,33.452,0,0,0,5.143-17.143A32.046,32.046,0,0,0,58.629,29.486a56.439,56.439,0,0,0-7.2.686A2.768,2.768,0,0,1,48.343,28.8h0A3.012,3.012,0,0,1,50.4,24.343a37.744,37.744,0,0,1,18.514.343A37.26,37.26,0,0,1,96,54.514,40.2,40.2,0,0,1,90.514,81.6Z" transform="translate(14543 676)"/></svg>