<svg xmlns="http://www.w3.org/2000/svg" viewBox="7246.332 -1972 47 47"><path class="a" d="M23.4.1A23.5,23.5,0,1,0,46.9,23.6,23.49,23.49,0,0,0,23.4.1ZM10.933,14.645H36.016a.45.45,0,0,1,.247.841c-2.968,1.831-9.7,5.887-12.022,7.322a1.519,1.519,0,0,1-1.583,0c-3.562-2.177-8.262-5-11.973-7.273A.479.479,0,0,1,10.933,14.645ZM37.6,29.388a2.889,2.889,0,0,1-2.869,3.067c-7.471.2-14.892.049-22.362,0A3.094,3.094,0,0,1,9.3,29.339V17.663a.583.583,0,0,1,.891-.495c2.375,1.484,4.552,2.869,6.778,4.255,1.484.94,3.809,2.325,5.591,3.414a1.742,1.742,0,0,0,1.831,0c2.375-1.484,8.806-5.492,11.973-7.421.1-.1.247-.148.346-.247a.583.583,0,0,1,.891.495C37.6,20.087,37.6,26.222,37.6,29.388Z" transform="translate(7246.432 -1972.1)"/></svg>