<svg xmlns="http://www.w3.org/2000/svg" viewBox="2514 1872 120 119.542"><defs><style>.a{fill:#14cc6e;}</style></defs><g transform="translate(2514 1872.041)"><path class="a" d="M19.053,87.807c6.435-10.347,15.772-6.814,24.1-8.832s8.2-10.725,6.057-14.384-8.2-8.328-8.959-16.656,0-8.2.757-14.384-3.533-9.085-5.93-15.772a43.5,43.5,0,0,1-1.514-5.8,5.1,5.1,0,0,0-7.949-3.281A60.084,60.084,0,0,0,11.482,93.232a2.592,2.592,0,0,0,4.29-.126Z" transform="translate(0 2.043)"/><path class="a" d="M61.124.263a59.643,59.643,0,0,0-17.791.883A6.549,6.549,0,0,0,38.16,7.96a44.6,44.6,0,0,0,1.893,10.6c2.271,7.571,6.309,6.814,8.2,6.687,4.038-.379,7.066-6.94,18.17-3.407a37.93,37.93,0,0,0-1.767,6.183,21.251,21.251,0,0,0-19.179,7.192c-6.309,7.445-3.533,17.917,3.028,25.488A16.406,16.406,0,0,1,51.787,66a8.892,8.892,0,0,1,2.65-.126,13,13,0,0,1,4.795,1.64c1.262.631,1.767.883,3.028.5a2.13,2.13,0,0,0,1.514-1.136c.883-1.136,1.767-2.145,4.669-2.4a5.93,5.93,0,0,1,5.552,2.271c.252.252.5.5.631.5h.126a1.734,1.734,0,0,0,1.009-.631,6.04,6.04,0,0,1,3.785-2.145,4.887,4.887,0,0,1,2.776.252h0c1.64-9.337.757-17.034-1.514-22.964a15.121,15.121,0,0,0,1.514-1.388A10.981,10.981,0,0,0,84.341,36.6c5.047,9.337,6.309,22.207,1.767,37.1C78.537,98.3,52.544,96.411,45.857,94.9c-6.687-1.388-18.422-7.571-23.974-2.019a16.332,16.332,0,0,0-4.038,7.571A7.687,7.687,0,0,0,21,108.65a59.979,59.979,0,0,0,94.255-53.121C113.236,26.887,90.145,3.039,61.124.263ZM55.194,45.94a2.59,2.59,0,0,1,2.4-3.407,2.839,2.839,0,0,1,2.776,2.019c.5,1.766,0,1.009-2.271,1.64C56.456,46.7,55.7,47.832,55.194,45.94ZM71.345,58.179a1.553,1.553,0,0,1-1.262.631,1.515,1.515,0,0,1-1.514-1.136,4.808,4.808,0,0,0-1.262-2.524,4.978,4.978,0,0,0-8.328,2.524,1.5,1.5,0,0,1-1.514,1.262,1.577,1.577,0,0,1-1.514-2.019,8.162,8.162,0,0,1,15.9,0A2.664,2.664,0,0,1,71.345,58.179Zm1.009-13c-.252,1.766-.5.883-2.776.631-1.64-.252-2.776.5-2.524-1.514a2.752,2.752,0,0,1,3.659-2.145A2.654,2.654,0,0,1,72.354,45.183Zm6.435-9.211a5.849,5.849,0,0,1-9.968-3.659c-.757-4.795,3.028-12.492,4.542-15.141a.953.953,0,0,1,1.514-.126C80.934,24.237,81.817,32.439,78.789,35.972Z" transform="translate(4.615 0)"/></g></svg>