<svg xmlns="http://www.w3.org/2000/svg" viewBox="-2141.568 7177.628 16 15.372"><path class="a" d="M16.287,6.818l-4.7-.385a.446.446,0,0,1-.342-.235L8.807,1.71a.3.3,0,0,0-.534,0L5.964,6.2a.446.446,0,0,1-.342.235L.9,6.818a.319.319,0,0,0-.192.556l3.847,3.655a.5.5,0,0,1,.128.427L3.463,16.522a.323.323,0,0,0,.492.342L8.379,14a.463.463,0,0,1,.47,0l4.424,2.864a.32.32,0,0,0,.492-.342l-1.218-5.065a.41.41,0,0,1,.128-.427l3.847-3.655A.343.343,0,0,0,16.287,6.818Z" transform="translate(-2142.167 7176.078)"/></svg>