<svg xmlns="http://www.w3.org/2000/svg" viewBox="7602.776 2503.67 35.443 36.16"><g transform="translate(7602.794 2503.67)"><path class="a" d="M2.515,17.383a15.318,15.318,0,0,1,13.8-14.066A15.009,15.009,0,0,1,25.14,5.175l-2.057.265a1.582,1.582,0,0,0-.73.4.872.872,0,0,0-.2.8,1.057,1.057,0,0,0,1.194.929l4.246-.6a1.724,1.724,0,0,0,1.062-.6,1.811,1.811,0,0,0,.332-1.194l-.6-4.246a1.582,1.582,0,0,0-.4-.73,1.837,1.837,0,0,0-.863-.2A1.057,1.057,0,0,0,26.2,1.194l.332,1.858A18.408,18.408,0,0,0,16.448.73,17.923,17.923,0,0,0,.06,16.786a17.844,17.844,0,0,0,1.99,9.952,1.372,1.372,0,0,0,.929.663h.2a1.4,1.4,0,0,0,.863-.332h0a1.309,1.309,0,0,0,.265-1.526A15.682,15.682,0,0,1,2.515,17.383Z" transform="translate(0 0)"/><path class="a" d="M35.534,13.689a1.3,1.3,0,0,0-.863-.6,1.288,1.288,0,0,0-1.062.332,1.31,1.31,0,0,0-.265,1.592A15.075,15.075,0,0,1,30.956,33.66,15.239,15.239,0,0,1,20.274,38.1h-.2a15.051,15.051,0,0,1-8.36-2.654l1.924-.265a1.582,1.582,0,0,0,.73-.4.872.872,0,0,0,.2-.8,1.1,1.1,0,0,0-1.194-.929l-4.18.531a1.724,1.724,0,0,0-1.062.6A1.811,1.811,0,0,0,7.8,35.385l.6,4.246a1.582,1.582,0,0,0,.4.73,1.121,1.121,0,0,0,.663.2h.133a1.582,1.582,0,0,0,.73-.4.872.872,0,0,0,.2-.8l-.265-1.924a17.729,17.729,0,0,0,27.734-13.4A17.165,17.165,0,0,0,35.534,13.689Z" transform="translate(-2.631 -4.4)"/></g></svg>