<svg xmlns="http://www.w3.org/2000/svg" viewBox="6852.255 -2871 47 47"><path class="a" d="M23.4.1A23.5,23.5,0,1,0,46.9,23.6,23.49,23.49,0,0,0,23.4.1ZM37.9,16.031a16.063,16.063,0,0,1-2.078,2.028.353.353,0,0,0-.148.3,17.285,17.285,0,0,1-2.078,8.707,16.336,16.336,0,0,1-8.064,7.52,17.647,17.647,0,0,1-13.9-.148A16,16,0,0,1,9.6,33.346a12.066,12.066,0,0,0,8.658-2.523,6.193,6.193,0,0,1-4.205-1.929,5.772,5.772,0,0,1-1.286-2.177c.445,0,.891.049,1.286.049a5.791,5.791,0,0,0,1.286-.2,6.147,6.147,0,0,1-3.908-2.919,5.858,5.858,0,0,1-.792-3.018,5.465,5.465,0,0,0,2.622.693,6.244,6.244,0,0,1-2.424-3.612,5.99,5.99,0,0,1,.643-4.3A17.046,17.046,0,0,0,23.8,19.642v-.2A5.913,5.913,0,0,1,27.8,12.567,5.737,5.737,0,0,1,33.74,13.9a.472.472,0,0,0,.594.148,11.92,11.92,0,0,0,3.117-1.187,2.838,2.838,0,0,0,.346-.2,6.806,6.806,0,0,1-2.474,3.265c.247-.049.544-.1.792-.148a5.176,5.176,0,0,0,.841-.2,4.863,4.863,0,0,0,.792-.247,3.707,3.707,0,0,1,.792-.247C38.341,15.437,38.094,15.734,37.9,16.031Z" transform="translate(6852.355 -2871.1)"/></svg>