<svg xmlns="http://www.w3.org/2000/svg" viewBox="-846.828 1445.527 15.155 26.023"><g class="a" transform="translate(-860.828 1438.027)"><path class="b" d="M 16.14395523071289 33.02294540405273 C 15.69514179229736 33.02294540405273 15.34517383575439 32.87900161743164 15.01372146606445 32.55705642700195 C 14.71215915679932 32.31822204589844 14.53145217895508 31.97351455688477 14.50365543365479 31.58224487304688 C 14.47172546386719 31.13296508789063 14.64885520935059 30.67984580993652 14.9896354675293 30.33907508850098 L 24.81724548339844 20.511474609375 L 15.01204872131348 10.70627880096436 C 14.71152210235596 10.46750640869141 14.53140926361084 10.12333488464355 14.50365543365479 9.732814788818359 C 14.47247791290283 9.294257164001465 14.64049339294434 8.852067947387695 14.96549129486084 8.514251708984375 C 15.22480964660645 8.186931610107422 15.61571598052979 8.000004768371582 16.04385566711426 8.000004768371582 C 16.46326637268066 8.000004768371582 16.86813545227051 8.173885345458984 17.18387603759766 8.489635467529297 L 28.05139541625977 19.35715484619141 C 28.29139518737793 19.59716606140137 28.42332458496094 19.89215469360352 28.52932548522949 20.12917518615723 C 28.55561637878418 20.18796539306641 28.58044624328613 20.24348449707031 28.60263633728027 20.28786468505859 L 28.65542602539063 20.39343452453613 L 28.65542602539063 20.511474609375 C 28.65542602539063 20.81809425354004 28.52719497680664 21.30439567565918 28.16579627990723 21.66578483581543 L 17.29826545715332 32.5333137512207 C 16.95964622497559 32.8719367980957 16.60364532470703 33.02294540405273 16.14395523071289 33.02294540405273 Z"/></g></svg>