<svg xmlns="http://www.w3.org/2000/svg" viewBox="12038.764 3821.644 43.559 35.711"><g transform="translate(12500.756 7158.043) rotate(180)"><g transform="translate(418.434 3300.688)"><path class="a" d="M18.509,0C20.34,0,20.8.916,20.8,2.028A2.29,2.29,0,0,1,19.49,4.317c-2.812,2.42-8.11,4.774-8.11,10.792,0,5.428,7.064,5.69,7.064,12.361,0,4.12-2.42,8.241-8.633,8.241C4.513,35.776,0,32.179,0,23.676,0,11.446,13.473,0,18.509,0Zm22.63,0c1.9,0,2.42.916,2.42,2.028A2.2,2.2,0,0,1,42.12,4.317c-3.336,2.42-8.11,5.036-8.11,10.792,0,5.428,7.064,5.428,7.064,12.361,0,4.12-2.42,8.241-8.633,8.241-5.428,0-9.876-3.6-9.876-12.1C22.63,11.446,36.234,0,41.139,0Z" transform="translate(0 0)"/></g></g></svg>