<svg xmlns="http://www.w3.org/2000/svg" viewBox="2514.089 1201 120 120"><g transform="translate(2514.089 1201)"><ellipse class="b" cx="59.716" cy="59.722" rx="59.716" ry="59.722" transform="translate(0.189 0.304)"/><path class="a" d="M57.2.011A60.335,60.335,0,0,0,.013,57.334,59.392,59.392,0,0,0,10.87,94.455a2.813,2.813,0,0,0,5.05-1.263,115.88,115.88,0,0,1,2.4-11.49,128.031,128.031,0,0,1,7.575-20.454A11.416,11.416,0,0,1,42.685,56.2c6.06,3.788,12.246,7.449,18.306,11.111.252.126.631.379,1.136.631-.379-3.535-.757-6.818-1.136-10.1a29.009,29.009,0,0,1-.631-5.682A9.381,9.381,0,0,1,69.2,43.445a9.6,9.6,0,0,1,9.974,8.081,157.467,157.467,0,0,1,2.146,24.369c0,3.409.126,6.818-.126,10.1a9.369,9.369,0,0,1-14.014,7.323c-3.914-2.273-7.827-4.672-11.741-7.071a11.649,11.649,0,0,1-1.01-.631c-.379,1.641-.757,3.157-1.01,4.672a90.4,90.4,0,0,0-.631,24.116,6.269,6.269,0,0,0,6.186,5.556h0c33.456,0,61.1-26.894,60.978-60.353A60.19,60.19,0,0,0,57.2.011ZM68.188,39.152a1.086,1.086,0,0,1-1.01,1.01A14.068,14.068,0,0,0,55.815,52.409a1.265,1.265,0,0,1-1.262,1.263,18.646,18.646,0,0,1-22.22-12.247C29.05,31.45,34.984,20.086,45.21,17.814a23.063,23.063,0,0,1,7.449-.379A18.627,18.627,0,0,1,68.188,39.152Zm38.38,7.449a2.081,2.081,0,0,1,1.389,2.4,2.209,2.209,0,0,1-2.525,1.389,7.709,7.709,0,0,1-1.641-.379c-2.146-1.136-4.166-2.273-6.312-3.409C97.6,46.349,103.285,45.465,106.567,46.6Zm-10.6-7.2c2.02-.126,3.409,1.389,3.282,2.525A2.21,2.21,0,0,1,97.1,44.076a7.406,7.406,0,0,1-2.9-.505c-2.272-.758-4.419-1.768-6.691-2.651C87.63,40.667,93.185,39.657,95.962,39.4Zm-2.4,7.7a7.815,7.815,0,0,1,2.4.884,2.191,2.191,0,0,1-1.641,4.04,6.43,6.43,0,0,1-2.146-.884c-2.146-1.515-4.166-3.03-6.186-4.545A53.619,53.619,0,0,1,93.564,47.106Zm-1.01,11.616a2.205,2.205,0,0,1-3.03.505,7.331,7.331,0,0,1-2.4-2.02c-1.515-1.768-2.777-3.662-4.166-5.429.126-.126,6.312,1.136,9.09,3.914A2.125,2.125,0,0,1,92.554,58.722Zm11.11,1.01a2.03,2.03,0,0,1-2.651.758,12.706,12.706,0,0,1-3.156-2.146c-1.263-1.136-2.4-2.525-3.661-3.788a52.283,52.283,0,0,1,6.817,1.389,13.8,13.8,0,0,1,1.894,1.01A2.438,2.438,0,0,1,103.664,59.733Zm7.449-.884a4.809,4.809,0,0,1-1.262-.379c-2.777-1.263-4.8-3.283-7.07-5.3,3.03.126,6.06,0,8.964,1.136.758.253,2.9,1.768,2.02,3.662C113.385,58.849,112.122,59.1,111.112,58.849Z" transform="translate(0.05 0.04)"/></g></svg>