<svg xmlns="http://www.w3.org/2000/svg" viewBox="7049.071 -2871 47 47"><path class="a" d="M23.4.1A23.5,23.5,0,1,0,46.9,23.6,23.49,23.49,0,0,0,23.4.1ZM18.156,33.049H13.505c-.2,0-.2-.049-.2-.2v-14.2c0-.148.049-.2.2-.2h4.651ZM15.732,16.575A2.574,2.574,0,1,1,18.4,14,2.609,2.609,0,0,1,15.732,16.575ZM35.669,32.8v.247H30.821V25.035a4.148,4.148,0,0,0-.4-1.88A2.062,2.062,0,0,0,28.3,21.967a2.429,2.429,0,0,0-1.781.742,2.571,2.571,0,0,0-.792,1.732v8.411c0,.2-.049.247-.2.247H20.877V18.5h4.651c.148,0,.2.049.2.2v1.781c.247-.3.445-.594.693-.841a4.336,4.336,0,0,1,2.771-1.435,6.3,6.3,0,0,1,2.721.2,4.612,4.612,0,0,1,2.968,2.622,7.667,7.667,0,0,1,.742,3.463v3.562C35.669,29.636,35.669,31.219,35.669,32.8Z" transform="translate(7049.171 -2871.1)"/></svg>