<svg xmlns="http://www.w3.org/2000/svg" viewBox="-1662.389 -3.602 103.217 104.602"><defs><style>.a{fill:#12a064;}.b{fill:#14cc6e;}.c{fill:#07a48a;}.d{fill:#214c36;}</style></defs><g transform="translate(-2572 -16)"><g transform="translate(910.171 12.398)"><path class="a" d="M14.169,179.407c-2.623-3.081-5.3-6.087-8.149-8.964-.891-.891-2.8-2.6-3.693-3.362a.4.4,0,0,1,.076-.637,30.828,30.828,0,0,1,13.574-3.718c6.927,7.08,15.1,7.742,16.783,8.226,0,0,1.35,2.419,2.343,3.973a48.93,48.93,0,0,0,4.533,6.01,53.19,53.19,0,0,0,6.265,6.214,62.047,62.047,0,0,1-6.112,1.3,30.723,30.723,0,0,1-12.377-.458,24.488,24.488,0,0,1-7.029-3.031A28.439,28.439,0,0,1,14.169,179.407Z" transform="translate(-2.199 -121.256)"/><g transform="translate(5.902 15.518)"><path class="b" d="M46.237,84.145a47.393,47.393,0,0,1-1.171-5.7c-.153-1.222-.255-2.394-.357-3.718a25.552,25.552,0,0,1-.076-2.8,3.263,3.263,0,0,0-.28-.509,19.81,19.81,0,0,0-2.725-3.9,17.07,17.07,0,0,0-5.5-4.151,25.344,25.344,0,0,0-8-2.241c-.662-.076-1.834-.178-2.47-.229a.273.273,0,0,0-.255.407c.357.84,1.1,2.7,1.426,3.616,1.019,2.954,1.859,5.985,2.674,8.99a23.168,23.168,0,0,0,2.47,6.036,20.006,20.006,0,0,0,3.795,4.584A24.813,24.813,0,0,0,44,89.315a46.221,46.221,0,0,0,4.533,1.324A40.271,40.271,0,0,1,46.237,84.145Z" transform="translate(-25.373 -60.892)"/></g><path class="a" d="M251.333,176.915c2.674-3.031,5.373-6.036,8.251-8.837.891-.866,2.827-2.547,3.718-3.311a.4.4,0,0,0-.076-.637c-6.851-3.718-13.4-4.024-13.523-3.9-7,7-15.178,7.538-16.885,8,0,0-1.375,2.394-2.368,3.947a49.464,49.464,0,0,1-4.609,5.959,52.627,52.627,0,0,1-6.341,6.138,55.326,55.326,0,0,0,6.087,1.375,31.16,31.16,0,0,0,12.377-.28,24.78,24.78,0,0,0,7.054-2.929A28.4,28.4,0,0,0,251.333,176.915Z" transform="translate(-164.16 -119.401)"/><g transform="translate(70.238 14.957)"><path class="b" d="M280.394,81.691a43.957,43.957,0,0,0,1.222-5.679c.178-1.222.28-2.394.407-3.718.076-.917.1-1.859.1-2.8.1-.178.178-.331.28-.509a22.149,22.149,0,0,1,2.75-3.871,17.3,17.3,0,0,1,5.552-4.075A25.5,25.5,0,0,1,298.73,58.9c.688-.076,1.834-.153,2.47-.2a.281.281,0,0,1,.255.407c-.357.84-1.146,2.674-1.477,3.591-1.044,2.954-1.935,5.959-2.776,8.964a23.479,23.479,0,0,1-2.521,5.985,19.417,19.417,0,0,1-3.845,4.533,25.016,25.016,0,0,1-8.277,4.686A41.857,41.857,0,0,1,278,88.134,40.453,40.453,0,0,0,280.394,81.691Z" transform="translate(-278 -58.692)"/></g><path class="a" d="M213.612,45.549c-.637-2.394-2.547.025-3.005.458a83.141,83.141,0,0,0-6.9,7.462,61.658,61.658,0,0,0-4.278,5.857,46.3,46.3,0,0,0-2.649,4.635,36.1,36.1,0,0,0-1.986,4.813c-4.508,12.784,1.553,26.46,1.07,28.243.1-.076-.051.051,0,0a54.371,54.371,0,0,0,6.952-6.749,50.279,50.279,0,0,0,4.406-5.857c.866-1.324,1.655-2.725,2.419-4.1a34.937,34.937,0,0,0,2.394-5.144c.535-1.426,1.044-2.9,1.5-4.355a43.82,43.82,0,0,0,1.808-12.581,48.629,48.629,0,0,0-1.426-11.511C213.79,46.339,213.714,45.957,213.612,45.549Z" transform="translate(-144.495 -33.162)"/><path class="b" d="M177.1.3A.908.908,0,0,0,175.726.25C174.019,2.084,170,8.272,167.5,16.8c.025.025.051.051.051.076a60.453,60.453,0,0,1,4.2,5.908,46.26,46.26,0,0,1,2.6,4.66c.229.458.407.917.611,1.4.229-.509.433-1.019.688-1.5a46.3,46.3,0,0,1,2.649-4.635,68.918,68.918,0,0,1,4.278-5.857c.611-.739,1.248-1.452,1.885-2.165A46.317,46.317,0,0,0,177.1.3Z" transform="translate(-125.403 0.04)"/><g transform="translate(28.724 12.242)"><path class="c" d="M189.5,254.267Z" transform="translate(-170.524 -201.737)"/><path class="a" d="M132.792,72.4a33,33,0,0,1,1.3-3.311c-.2-.458-.407-.942-.611-1.4a51.873,51.873,0,0,0-2.6-4.66,65.107,65.107,0,0,0-4.2-5.908,92.2,92.2,0,0,0-6.851-7.564c-.433-.433-2.317-2.878-2.98-.484-.1.407-.2.764-.306,1.121a47.27,47.27,0,0,0-1.553,11.486,43.739,43.739,0,0,0,1.655,12.606c.433,1.477.917,2.929,1.452,4.38a38.109,38.109,0,0,0,2.343,5.2q1.146,2.1,2.368,4.126a49.548,49.548,0,0,0,4.329,5.908,53.278,53.278,0,0,0,6.647,6.7c.025.025.051,0,.1-.025C134.218,98.575,128.309,85.078,132.792,72.4Z" transform="translate(-114.987 -48.031)"/></g></g><g transform="translate(909.611 91.711)"><path class="d" d="M0,312.4H1.63v7.716h3.9v1.477H0Z" transform="translate(0 -312.145)"/><path class="d" d="M24.4,316.29a5.654,5.654,0,0,1,.357-2.012,4.3,4.3,0,0,1,.993-1.528,4.4,4.4,0,0,1,1.528-.993,5.338,5.338,0,0,1,1.935-.357,5.976,5.976,0,0,1,1.961.306,4.342,4.342,0,0,1,1.528.968,4.866,4.866,0,0,1,1.019,1.528,5.553,5.553,0,0,1,.357,2.012,5.374,5.374,0,0,1-.357,1.961A4.468,4.468,0,0,1,32.7,319.7a4.4,4.4,0,0,1-1.528.993,5.967,5.967,0,0,1-1.961.382,5.236,5.236,0,0,1-1.935-.357,4.735,4.735,0,0,1-1.528-.968,4.081,4.081,0,0,1-.993-1.5A5.375,5.375,0,0,1,24.4,316.29Zm1.706-.1a4.1,4.1,0,0,0,.229,1.375,3.228,3.228,0,0,0,.637,1.07,3.09,3.09,0,0,0,.993.713,3,3,0,0,0,1.273.255,3.034,3.034,0,0,0,1.3-.255,3.091,3.091,0,0,0,.993-.713,3.228,3.228,0,0,0,.637-1.07,3.894,3.894,0,0,0,.229-1.375,3.669,3.669,0,0,0-.229-1.3,3.074,3.074,0,0,0-1.63-1.757,3.035,3.035,0,0,0-1.3-.255,2.919,2.919,0,0,0-1.273.255,3.073,3.073,0,0,0-1.63,1.757A3.669,3.669,0,0,0,26.106,316.188Z" transform="translate(-18.186 -311.4)"/><path class="d" d="M68.6,312.4h2.165l4.431,6.825h.025V312.4h1.63v9.194H74.788l-4.533-7.054H70.23v7.054H68.6Z" transform="translate(-51.13 -312.145)"/><path class="d" d="M109,312.4h3.616a5.768,5.768,0,0,1,1.757.28,4.056,4.056,0,0,1,1.477.84,4.6,4.6,0,0,1,1.044,1.426,5.015,5.015,0,0,1,.382,2.037,4.224,4.224,0,0,1-.458,2.037,4.548,4.548,0,0,1-2.7,2.267,5.668,5.668,0,0,1-1.681.28H109Zm2.852,7.716a5.4,5.4,0,0,0,1.452-.178,3.817,3.817,0,0,0,1.171-.535,2.292,2.292,0,0,0,.789-.968,3.035,3.035,0,0,0,.28-1.426,3.483,3.483,0,0,0-.255-1.426,2.528,2.528,0,0,0-.713-.968,2.6,2.6,0,0,0-1.1-.535,4.616,4.616,0,0,0-1.375-.178H110.63v6.239h1.222Z" transform="translate(-81.241 -312.145)"/><path class="d" d="M145.6,316.29a5.654,5.654,0,0,1,.357-2.012,4.3,4.3,0,0,1,.993-1.528,4.4,4.4,0,0,1,1.528-.993,5.338,5.338,0,0,1,1.935-.357,5.976,5.976,0,0,1,1.961.306,4.342,4.342,0,0,1,1.528.968,4.867,4.867,0,0,1,1.019,1.528,5.553,5.553,0,0,1,.357,2.012,5.374,5.374,0,0,1-.357,1.961A4.468,4.468,0,0,1,153.9,319.7a4.4,4.4,0,0,1-1.528.993,5.967,5.967,0,0,1-1.961.382,5.236,5.236,0,0,1-1.935-.357,4.735,4.735,0,0,1-1.528-.968,4.08,4.08,0,0,1-.993-1.5A5.375,5.375,0,0,1,145.6,316.29Zm1.706-.1a4.1,4.1,0,0,0,.229,1.375,3.228,3.228,0,0,0,.637,1.07,3.091,3.091,0,0,0,.993.713,3,3,0,0,0,1.273.255,3.034,3.034,0,0,0,1.3-.255,3.091,3.091,0,0,0,.993-.713,3.227,3.227,0,0,0,.637-1.07,3.894,3.894,0,0,0,.229-1.375,3.669,3.669,0,0,0-.229-1.3,3.073,3.073,0,0,0-1.63-1.757,3.035,3.035,0,0,0-1.3-.255,2.919,2.919,0,0,0-1.273.255,3.074,3.074,0,0,0-1.63,1.757A3.669,3.669,0,0,0,147.306,316.188Z" transform="translate(-108.52 -311.4)"/><path class="d" d="M189.725,312.4h2.165l4.431,6.825h.025V312.4h1.63v9.194h-2.088l-4.533-7.054h-.025v7.054H189.7V312.4Z" transform="translate(-141.389 -312.145)"/><path class="d" d="M250.049,313.968a2.966,2.966,0,0,0-.968-.739,2.473,2.473,0,0,0-.942-.178,2.918,2.918,0,0,0-1.273.255,3.073,3.073,0,0,0-1.63,1.757,3.569,3.569,0,0,0-.229,1.3,4.1,4.1,0,0,0,.229,1.375,3.227,3.227,0,0,0,.637,1.07,3.091,3.091,0,0,0,.993.713,3,3,0,0,0,1.273.255,2.21,2.21,0,0,0,1.07-.255,2.951,2.951,0,0,0,.968-.84l1.35.968a3.707,3.707,0,0,1-1.5,1.248,4.738,4.738,0,0,1-1.91.382,5.238,5.238,0,0,1-1.935-.357,4.736,4.736,0,0,1-1.528-.968,4.081,4.081,0,0,1-.993-1.5,5.375,5.375,0,0,1-.357-1.961,5.655,5.655,0,0,1,.357-2.012,4.3,4.3,0,0,1,.993-1.528,4.4,4.4,0,0,1,1.528-.993,5.337,5.337,0,0,1,1.935-.357,4.371,4.371,0,0,1,1.732.331,4,4,0,0,1,1.477,1.121Z" transform="translate(-181.339 -311.549)"/><path class="d" d="M279.9,312.4h1.63v7.716h3.9v1.477H279.9Z" transform="translate(-208.618 -312.145)"/><path class="d" d="M306.1,312.4h1.63v9.194H306.1Z" transform="translate(-228.146 -312.145)"/><path class="d" d="M320.4,312.4h2.165L327,319.225h.025V312.4h1.63v9.194h-2.063l-4.533-7.054h-.025v7.054H320.4Z" transform="translate(-238.804 -312.145)"/><path class="d" d="M360.6,312.4h1.63v9.194H360.6Z" transform="translate(-268.767 -312.145)"/><path class="d" d="M379.749,313.968a2.966,2.966,0,0,0-.968-.739,2.473,2.473,0,0,0-.942-.178,2.918,2.918,0,0,0-1.273.255,3.073,3.073,0,0,0-1.63,1.757,3.569,3.569,0,0,0-.229,1.3,4.1,4.1,0,0,0,.229,1.375,3.227,3.227,0,0,0,.637,1.07,3.091,3.091,0,0,0,.993.713,3,3,0,0,0,1.273.255,2.21,2.21,0,0,0,1.07-.255,2.951,2.951,0,0,0,.968-.84l1.35.968a3.707,3.707,0,0,1-1.5,1.248,4.738,4.738,0,0,1-1.91.382,5.238,5.238,0,0,1-1.935-.357,4.736,4.736,0,0,1-1.528-.968,4.08,4.08,0,0,1-.993-1.5A5.375,5.375,0,0,1,373,316.49a5.655,5.655,0,0,1,.357-2.012,4.3,4.3,0,0,1,.993-1.528,4.4,4.4,0,0,1,1.528-.993,5.337,5.337,0,0,1,1.935-.357,4.372,4.372,0,0,1,1.732.331,4,4,0,0,1,1.477,1.121Z" transform="translate(-278.009 -311.549)"/><path class="d" d="M20.6,377.49a5.654,5.654,0,0,1,.357-2.012,4.3,4.3,0,0,1,.993-1.528,4.4,4.4,0,0,1,1.528-.993,5.338,5.338,0,0,1,1.935-.357,5.976,5.976,0,0,1,1.961.306,4.342,4.342,0,0,1,1.528.968,4.866,4.866,0,0,1,1.019,1.528,5.553,5.553,0,0,1,.357,2.012,5.375,5.375,0,0,1-.357,1.961A4.469,4.469,0,0,1,28.9,380.9a4.4,4.4,0,0,1-1.528.993,5.968,5.968,0,0,1-1.961.382,5.237,5.237,0,0,1-1.935-.357,4.735,4.735,0,0,1-1.528-.968,4.08,4.08,0,0,1-.993-1.5A5.374,5.374,0,0,1,20.6,377.49Zm1.706-.1a4.1,4.1,0,0,0,.229,1.375,3.227,3.227,0,0,0,.637,1.07,3.09,3.09,0,0,0,.993.713,3,3,0,0,0,1.273.255,3.034,3.034,0,0,0,1.3-.255,3.091,3.091,0,0,0,.993-.713,3.227,3.227,0,0,0,.637-1.07,3.894,3.894,0,0,0,.229-1.375,3.669,3.669,0,0,0-.229-1.3,3.073,3.073,0,0,0-1.63-1.757,3.034,3.034,0,0,0-1.3-.255,2.918,2.918,0,0,0-1.273.255,3.073,3.073,0,0,0-1.63,1.757A3.669,3.669,0,0,0,22.306,377.388Z" transform="translate(-15.354 -357.014)"/><path class="d" d="M64.8,373.6h5.908v1.477H66.43V377.5h4.024v1.477H66.43v3.82H64.8Z" transform="translate(-48.298 -357.76)"/><path class="d" d="M109,373.6h2.165l4.431,6.825h.025V373.6h1.63v9.193h-2.063l-4.533-7.054h-.025v7.054H109Z" transform="translate(-81.241 -357.76)"/><path class="d" d="M156.634,379.432a4.047,4.047,0,0,1-.28,1.5,3.613,3.613,0,0,1-.764,1.146,3.223,3.223,0,0,1-1.171.713,3.961,3.961,0,0,1-1.452.255,3.779,3.779,0,0,1-1.452-.255,3.614,3.614,0,0,1-1.171-.713,3.022,3.022,0,0,1-.764-1.146,4.047,4.047,0,0,1-.28-1.5V373.6h1.63v5.781a2.411,2.411,0,0,0,.1.713,2.152,2.152,0,0,0,.331.688,1.819,1.819,0,0,0,.637.509,2.4,2.4,0,0,0,1.935,0,1.819,1.819,0,0,0,.637-.509,1.726,1.726,0,0,0,.331-.688,2.411,2.411,0,0,0,.1-.713V373.6h1.63Z" transform="translate(-111.278 -357.76)"/><path class="d" d="M185.2,375.077h-2.8V373.6h7.233v1.477h-2.8v7.716H185.2Z" transform="translate(-135.949 -357.76)"/><path class="d" d="M215.025,373.6h3.183a6.964,6.964,0,0,1,1.273.127,3.181,3.181,0,0,1,1.1.433,2.144,2.144,0,0,1,.764.815,2.728,2.728,0,0,1,.28,1.3,2.529,2.529,0,0,1-.56,1.681,2.327,2.327,0,0,1-1.579.815l2.419,4.075h-1.961l-2.114-3.9h-1.2v3.9H215V373.6Zm2.9,3.9a6.2,6.2,0,0,0,.688-.025,2.334,2.334,0,0,0,.637-.153,1.019,1.019,0,0,0,.484-.382,1.185,1.185,0,0,0,.178-.713,1.072,1.072,0,0,0-.178-.662,1.267,1.267,0,0,0-.433-.382,2.15,2.15,0,0,0-.611-.153,5.817,5.817,0,0,0-.637-.051h-1.4v2.5h1.273Z" transform="translate(-160.246 -357.76)"/><path class="d" d="M246.9,373.6h1.63v9.193H246.9Z" transform="translate(-184.022 -357.76)"/><path class="d" d="M260.3,375.077h-2.8V373.6h7.258v1.477h-2.8v7.716h-1.63v-7.716Z" transform="translate(-191.923 -357.76)"/><path class="d" d="M290.2,373.6h1.63v9.193H290.2Z" transform="translate(-216.295 -357.76)"/><path class="d" d="M302.5,377.49a5.654,5.654,0,0,1,.357-2.012,4.3,4.3,0,0,1,.993-1.528,4.4,4.4,0,0,1,1.528-.993,5.338,5.338,0,0,1,1.935-.357,5.976,5.976,0,0,1,1.961.306,4.342,4.342,0,0,1,1.528.968,4.866,4.866,0,0,1,1.019,1.528,5.553,5.553,0,0,1,.357,2.012,5.375,5.375,0,0,1-.357,1.961A4.469,4.469,0,0,1,310.8,380.9a4.4,4.4,0,0,1-1.528.993,5.968,5.968,0,0,1-1.961.382,5.237,5.237,0,0,1-1.935-.357,4.735,4.735,0,0,1-1.528-.968,4.08,4.08,0,0,1-.993-1.5A5.374,5.374,0,0,1,302.5,377.49Zm1.706-.1a4.1,4.1,0,0,0,.229,1.375,3.228,3.228,0,0,0,.637,1.07,3.091,3.091,0,0,0,.993.713,3,3,0,0,0,1.273.255,3.034,3.034,0,0,0,1.3-.255,3.091,3.091,0,0,0,.993-.713,3.227,3.227,0,0,0,.637-1.07,3.893,3.893,0,0,0,.229-1.375,3.668,3.668,0,0,0-.229-1.3,3.073,3.073,0,0,0-1.63-1.757,3.033,3.033,0,0,0-1.3-.255,2.918,2.918,0,0,0-1.273.255,3.073,3.073,0,0,0-1.63,1.757A3.669,3.669,0,0,0,304.206,377.388Z" transform="translate(-225.463 -357.014)"/><path class="d" d="M346.7,373.6h2.165l4.431,6.825h.025V373.6h1.63v9.193h-2.063l-4.533-7.054h-.025v7.054H346.7Z" transform="translate(-258.407 -357.76)"/></g></g></svg>